<svg width="48" height="48" viewBox="0 0 48 48" fill="none" xmlns="http://www.w3.org/2000/svg">
  <!-- Background Circle with Gradient -->
  <defs>
    <linearGradient id="bgGradient" x1="0%" y1="0%" x2="100%" y2="100%">
      <stop offset="0%" style="stop-color:#25D366;stop-opacity:1" />
      <stop offset="100%" style="stop-color:#128C7E;stop-opacity:1" />
    </linearGradient>
    <linearGradient id="iconGradient" x1="0%" y1="0%" x2="100%" y2="100%">
      <stop offset="0%" style="stop-color:#FFFFFF;stop-opacity:1" />
      <stop offset="100%" style="stop-color:#E8F5E9;stop-opacity:1" />
    </linearGradient>
  </defs>
  
  <!-- Main Circle -->
  <circle cx="24" cy="24" r="22" fill="url(#bgGradient)" />
  <circle cx="24" cy="24" r="22" fill="none" stroke="#20BA5A" stroke-width="2" opacity="0.3"/>
  
  <!-- Chat Bubble -->
  <path d="M14 16C14 14.3431 15.3431 13 17 13H31C32.6569 13 34 14.3431 34 16V26C34 27.6569 32.6569 29 31 29H20L14 33V16Z" 
        fill="url(#iconGradient)" />
  
  <!-- Reply Arrow -->
  <path d="M20 20L16 23L20 26" stroke="#25D366" stroke-width="2" stroke-linecap="round" stroke-linejoin="round"/>
  <path d="M16 23H28" stroke="#25D366" stroke-width="2" stroke-linecap="round"/>
  
  <!-- Dots (indicating automation) -->
  <circle cx="22" cy="23" r="1.5" fill="#25D366"/>
  <circle cx="26" cy="23" r="1.5" fill="#25D366"/>
  <circle cx="30" cy="23" r="1.5" fill="#25D366"/>
  
  <!-- Shine Effect -->
  <circle cx="32" cy="16" r="3" fill="white" opacity="0.3"/>
</svg>
